<?xml version="1.0" encoding="utf-8"?>
<!-- Generator: Adobe Illustrator 16.0.4, SVG Export Plug-In . SVG Version: 6.00 Build 0)  -->
<!DOCTYPE svg PUBLIC "-//W3C//DTD SVG 1.1//EN" "http://www.w3.org/Graphics/SVG/1.1/DTD/svg11.dtd">
<svg version="1.1" id="Capa_1" xmlns="http://www.w3.org/2000/svg" xmlns:xlink="http://www.w3.org/1999/xlink" x="0px" y="0px"
	 width="19.025px" height="18.066px" viewBox="0 0 19.025 18.066" enable-background="new 0 0 19.025 18.066" xml:space="preserve">
<path d="M10.273,2.978c0.249,0,0.449-0.043,0.449-0.097c0-0.055-0.201-0.098-0.449-0.098c-0.25,0-0.451,0.043-0.451,0.098
	C9.822,2.935,10.023,2.978,10.273,2.978z M8.471,2.78c-0.25,0-0.451,0.043-0.451,0.096c0,0.056,0.201,0.097,0.451,0.097
	c0.249,0,0.449-0.041,0.449-0.097C8.92,2.823,8.72,2.78,8.471,2.78z M17.969,16.38c0.042-0.129,0.166-0.578,0.047-1.219
	c-0.141-0.758-0.679-1.551-1.41-1.611c-0.729-0.061-1.246,0.007-1.439-0.08c-0.191-0.094-0.364-0.215-0.526-0.235s-0.214,0-0.214,0
	s0.285-0.262,0.275-0.566c-0.012-0.303-0.052-1.533,0.01-1.785c0.059-0.252,0.081-1.908-0.123-2.645
	c-0.204-0.744-0.901-1.484-1.37-1.664c-0.466-0.186-1.408-0.457-1.669-0.57c-0.267-0.108-0.186-0.141-0.346-0.129
	c-0.164,0.008-0.307,0.09-0.377,0.039c-0.069-0.051-0.101-0.252-0.051-0.404c0.051-0.151,0.083-0.233,0.083-0.233
	s0.004,0.051,0.019,0.119c0.003,0.008,0,0.014,0.005,0.022c0.032,0.152,0.105,0.375,0.261,0.354c0.233-0.031,0.152-0.64,0.131-0.842
	c0,0,0.254-0.601,0.254-1.113c0-0.519,0.03-0.711,0.082-0.844c0.051-0.132,0.141-0.576,0.101-0.994
	c-0.042-0.416-0.242-0.922-0.608-1.174c-0.365-0.255-0.72-0.519-0.771-0.572C10.28,0.183,9.731-0.01,9.377,0
	C9.021,0.01,8.616,0.039,8.22,0.356C7.825,0.67,7.409,1.004,7.338,1.074c-0.07,0.072-0.345,0.721-0.294,1.279
	C7.095,2.91,7.228,3.133,7.236,3.226c0.013,0.09-0.029,0.78,0.122,1.166C7.511,4.776,7.562,5,7.551,5.183
	C7.542,5.367,7.45,5.69,7.603,5.709c0.151,0.021,0.243-0.041,0.314-0.192c0.068-0.148,0.009-0.306,0.009-0.306
	S8.108,5.678,8.028,5.78C7.946,5.881,7.783,5.851,7.65,5.881c-0.128,0.031-1.73,0.537-2.065,0.632
	C5.25,6.603,4.255,7.25,4.136,8.073c-0.124,0.82-0.071,2.575-0.082,2.858c-0.012,0.284,0.142,1.573,0.212,1.817
	c0.07,0.242,0.185,0.404,0.092,0.484c-0.092,0.082-0.231,0.133-0.263,0.205c-0.031,0.071-0.195,0-0.204,0.09
	c-0.012,0.094-0.315,0.062-0.589,0.039c-0.274-0.019-0.943-0.039-1.45,0.315s-0.822,0.892-0.881,1.392
	c-0.054,0.426,0.059,0.961,0.091,1.104H0v1.688h19.025v-1.688h-1.057V16.38z M11.418,6.567h-0.005
	c-0.002-0.027-0.003-0.045-0.003-0.045S11.414,6.539,11.418,6.567z M7.906,4.928C7.562,4.422,7.45,3.865,7.459,3.681
	c0.006-0.101,0.022-0.22,0.034-0.318c0.039-0.076,0.081-0.189,0.081-0.34c0-0.283,0.074-1.119,0.164-1.254
	c0.09-0.136,0.491-0.326,0.808-0.345c0.312-0.012,2.223,0.062,2.371,0.209c0.148,0.148,0.269,0.521,0.284,0.806
	c0.014,0.287,0.029,0.553,0.043,0.717c0.007,0.066,0.029,0.146,0.052,0.217c-0.004,0.223-0.053,0.601-0.113,0.787
	c-0.081,0.252-0.364,0.932-0.67,1.123C10.209,5.48,9.712,5.517,9.276,5.509C8.84,5.496,8.25,5.437,7.906,4.928z M8.793,13.808
	c0.291,0.03,0.352-0.076,0.352-0.076s0.029-0.318,0.135-0.318c0.106,0,0.152,0.045,0.152,0.18c0,0.14,0,0.429-0.152,0.474
	c-0.152,0.047-0.902,0.145-1.281-0.037c-0.381-0.185-1.102-0.422-1.01-0.682c0,0,0.329-0.449,0.68-0.375
	c0.089,0.018,0.53-0.017,0.942-0.017c0.388-0.002,0.748-0.014,0.775,0.029c0.062,0.092,0.123,0.229-0.075,0.26
	c-0.197,0.029-0.808,0.045-0.896,0.105C8.322,13.413,8.503,13.776,8.793,13.808z M8.061,10.599c-0.006-0.015-0.01-0.025-0.016-0.035
	c0.153-0.019,0.514,0.084,0.84-0.113c0.426-0.258,0.578-0.75,0.578-0.75S9.294,9.913,8.93,10.157
	c-0.294,0.197-0.779,0.213-0.955,0.213C7.564,9.058,7.871,6.189,7.871,6.189l0.421-0.215l0.151,0.075c0,0,0.366,0.646,0.923,0.685
	c0.557,0.041,1.035-0.724,1.035-0.724s0.23,0.039,0.366,0.039c0.134,0,0.343,0.14,0.343,0.14s0.209,0.918,0.192,2.537
	c-0.008,0.688-0.11,1.229-0.265,1.645c-0.177,0-0.657-0.016-0.953-0.213c-0.362-0.244-0.53-0.457-0.53-0.457s0.151,0.492,0.576,0.75
	c0.32,0.193,0.673,0.094,0.829,0.111c-0.201,0.448-0.47,0.727-0.731,0.875C9.711,11.73,8.598,11.767,8.061,10.599z M10.881,12.819
	c-0.012,0.004-0.034,0.01-0.034,0.01s0.01-0.006,0.017-0.012C10.87,12.817,10.875,12.819,10.881,12.819z M10.93,14.116
	c-0.379,0.184-1.133-0.004-1.286-0.051c-0.151-0.045-0.151-0.334-0.151-0.474c0-0.135,0.046-0.18,0.151-0.18
	c0.107,0,0.139,0.318,0.139,0.318s0.06,0.106,0.35,0.076c0.289-0.031,0.471-0.396,0.38-0.457s-0.699-0.076-0.896-0.105
	c-0.2-0.031-0.138-0.168-0.077-0.26c0.028-0.043,0.391-0.031,0.773-0.029c0.417,0,0.858-0.008,0.945,0.016
	c0.168,0.048,0.65,0.388,0.65,0.388C11.998,13.616,11.311,13.935,10.93,14.116z M9.832,3.992H8.998c0,0,0.209,0.285,0.388,0.285
	S9.832,3.992,9.832,3.992z"/>
</svg>
