<?xml version="1.0" encoding="utf-8"?>
<!-- Generator: Adobe Illustrator 16.0.0, SVG Export Plug-In . SVG Version: 6.00 Build 0)  -->
<!DOCTYPE svg PUBLIC "-//W3C//DTD SVG 1.1//EN" "http://www.w3.org/Graphics/SVG/1.1/DTD/svg11.dtd">
<svg version="1.1" id="Layer_1" xmlns="http://www.w3.org/2000/svg" xmlns:xlink="http://www.w3.org/1999/xlink" x="0px" y="0px"
	 width="36px" height="36px" viewBox="0 0 36 36" enable-background="new 0 0 36 36" xml:space="preserve">
<g>
	<path fill="#010101" d="M1.845,9.701c0.139,0.332,0.321,0.675,0.54,0.996c0.221,0.293,0.473,0.607,0.757,0.853
		c0.283,0.239,0.59,0.482,0.911,0.654c0.646,0.368,1.341,0.584,2.027,0.646c0.684,0.065,1.355-0.027,1.939-0.202
		c0.295-0.093,0.564-0.197,0.81-0.319c0.241-0.113,0.462-0.258,0.638-0.371c0.104-0.063,0.193-0.131,0.272-0.193
		c-4.294-0.979-5.474-2.792-5.474-2.792c0.671,0.846,3.729,1.721,5.638,2.202c-0.034-0.098-0.074-0.204-0.127-0.315
		c-0.083-0.184-0.175-0.423-0.291-0.649C9.375,9.982,9.246,9.737,9.104,9.5c-0.284-0.479-0.62-0.945-0.99-1.34
		c-0.369-0.4-0.782-0.714-1.197-0.964C6.691,7.083,6.497,6.969,6.268,6.892C6.043,6.811,5.836,6.741,5.59,6.7
		C5.367,6.652,5.143,6.616,4.883,6.6C4.66,6.57,4.415,6.553,4.159,6.543c-0.267-0.022-0.51-0.042-0.723-0.057
		C3.184,6.469,2.969,6.441,2.771,6.408C2.587,6.371,2.389,6.352,2.273,6.327C2.139,6.304,2.071,6.293,2.071,6.293
		S2.026,6.352,1.969,6.459C1.916,6.561,1.813,6.731,1.75,6.933C1.681,7.135,1.576,7.42,1.561,7.694C1.534,7.98,1.53,8.31,1.57,8.66
		C1.625,8.986,1.713,9.341,1.845,9.701z"/>
	<path fill="#010101" d="M16.095,8.358c0.112,0.242,0.257,0.462,0.371,0.638c0.063,0.103,0.131,0.192,0.193,0.272
		c0.979-4.294,2.791-5.474,2.791-5.474c-0.846,0.671-1.72,3.728-2.201,5.637c0.098-0.033,0.204-0.073,0.315-0.127
		c0.184-0.083,0.422-0.174,0.649-0.291c0.228-0.111,0.473-0.241,0.709-0.383c0.479-0.283,0.945-0.619,1.34-0.99
		c0.398-0.369,0.715-0.782,0.963-1.198c0.113-0.224,0.229-0.419,0.307-0.648c0.08-0.224,0.15-0.431,0.191-0.678
		c0.047-0.223,0.084-0.447,0.1-0.708c0.029-0.222,0.047-0.468,0.057-0.724c0.021-0.267,0.043-0.51,0.057-0.723
		c0.018-0.252,0.045-0.466,0.078-0.665c0.037-0.184,0.057-0.382,0.082-0.498c0.021-0.134,0.033-0.203,0.033-0.203
		s-0.059-0.044-0.166-0.102c-0.102-0.052-0.271-0.156-0.473-0.218c-0.203-0.069-0.488-0.174-0.762-0.189
		c-0.285-0.027-0.617-0.031-0.967,0.01c-0.326,0.054-0.68,0.143-1.041,0.275c-0.331,0.139-0.673,0.321-0.995,0.54
		c-0.293,0.22-0.607,0.473-0.853,0.757c-0.239,0.283-0.482,0.589-0.654,0.911c-0.368,0.646-0.584,1.341-0.646,2.027
		c-0.065,0.684,0.027,1.355,0.202,1.94C15.869,7.844,15.973,8.113,16.095,8.358z"/>
	<path fill="#010101" d="M6.296,16.959c0.067-0.057,0.123-0.116,0.173-0.169c-3.177-0.214-4.225-1.375-4.225-1.375
		c0.575,0.528,2.856,0.807,4.276,0.934c-0.036-0.065-0.076-0.137-0.127-0.211c-0.079-0.122-0.174-0.283-0.282-0.431
		c-0.106-0.147-0.225-0.309-0.353-0.462c-0.257-0.31-0.549-0.604-0.859-0.846c-0.308-0.242-0.638-0.422-0.963-0.551
		c-0.173-0.056-0.323-0.116-0.497-0.146c-0.169-0.032-0.324-0.058-0.506-0.06c-0.164-0.009-0.329-0.011-0.516,0.008
		c-0.163,0.004-0.341,0.021-0.525,0.042c-0.191,0.017-0.367,0.027-0.521,0.042c-0.183,0.016-0.338,0.019-0.484,0.019
		c-0.135-0.005-0.278,0.002-0.365-0.002c-0.096,0-0.148,0-0.148,0s-0.024,0.046-0.054,0.13c-0.026,0.079-0.081,0.211-0.103,0.364
		c-0.026,0.151-0.068,0.367-0.048,0.565c0.013,0.207,0.046,0.444,0.116,0.688c0.075,0.228,0.178,0.47,0.314,0.711
		c0.135,0.221,0.305,0.446,0.496,0.65c0.191,0.185,0.407,0.38,0.637,0.522c0.23,0.14,0.476,0.279,0.725,0.365
		c0.502,0.189,1.024,0.266,1.521,0.232c0.497-0.03,0.966-0.171,1.363-0.364c0.199-0.099,0.381-0.205,0.542-0.319
		C6.041,17.186,6.184,17.059,6.296,16.959z"/>
	<path fill="#010101" d="M11.768,11.706c0.038,0.102,0.083,0.201,0.118,0.282c0.02,0.048,0.04,0.092,0.062,0.13
		c0.409-0.736,1.031-1.945,0.965-2.4c0,0,0.22,0.897-0.733,2.521c0.042-0.005,0.091-0.015,0.138-0.028
		c0.087-0.021,0.198-0.047,0.302-0.09c0.111-0.042,0.223-0.093,0.338-0.158c0.226-0.132,0.45-0.314,0.631-0.547
		c0.182-0.231,0.319-0.51,0.393-0.819c0.04-0.149,0.055-0.318,0.063-0.475c0.007-0.163-0.017-0.332-0.044-0.488
		c-0.035-0.16-0.09-0.318-0.151-0.458c-0.076-0.148-0.159-0.278-0.245-0.391c-0.096-0.114-0.202-0.212-0.297-0.287
		c-0.089-0.076-0.211-0.126-0.293-0.165c-0.08-0.038-0.166-0.055-0.212-0.072c-0.049-0.01-0.079-0.017-0.079-0.017
		s-0.019,0.026-0.049,0.074c-0.027,0.044-0.079,0.113-0.122,0.182c-0.047,0.07-0.101,0.145-0.169,0.229
		c-0.06,0.073-0.124,0.152-0.195,0.243c-0.07,0.082-0.137,0.165-0.194,0.241c-0.07,0.085-0.126,0.166-0.175,0.25
		c-0.06,0.087-0.1,0.173-0.139,0.268c-0.043,0.091-0.065,0.188-0.093,0.292c-0.047,0.2-0.068,0.422-0.051,0.655
		c0.014,0.229,0.06,0.47,0.128,0.701C11.69,11.492,11.731,11.605,11.768,11.706z"/>
	<path fill="#010101" d="M14.657,14.514c0.026,0.071,0.057,0.139,0.081,0.194c0.014,0.032,0.026,0.063,0.041,0.09
		c0.283-0.507,0.711-1.341,0.666-1.656c0,0,0.151,0.618-0.505,1.74c0.03-0.003,0.064-0.01,0.096-0.02
		c0.06-0.015,0.135-0.033,0.208-0.063c0.076-0.028,0.153-0.065,0.233-0.109c0.156-0.091,0.311-0.218,0.435-0.377
		c0.127-0.158,0.221-0.353,0.271-0.566c0.028-0.103,0.038-0.219,0.044-0.328c0.005-0.112-0.013-0.229-0.031-0.337
		c-0.025-0.11-0.063-0.22-0.104-0.315c-0.052-0.102-0.109-0.192-0.169-0.27c-0.067-0.079-0.139-0.147-0.206-0.198
		c-0.063-0.051-0.146-0.085-0.202-0.113c-0.057-0.027-0.114-0.039-0.146-0.049c-0.034-0.007-0.055-0.01-0.055-0.01
		s-0.014,0.017-0.034,0.05c-0.017,0.03-0.055,0.078-0.083,0.124c-0.031,0.049-0.071,0.101-0.117,0.159
		c-0.042,0.049-0.084,0.104-0.135,0.167c-0.047,0.058-0.094,0.114-0.134,0.168c-0.047,0.058-0.085,0.114-0.12,0.173
		c-0.042,0.061-0.069,0.12-0.096,0.183c-0.03,0.065-0.044,0.13-0.063,0.203c-0.032,0.136-0.048,0.291-0.035,0.451
		c0.008,0.159,0.04,0.325,0.087,0.484C14.604,14.367,14.632,14.444,14.657,14.514z"/>
	<path fill="#010101" d="M11.41,13.082c-0.085-0.011-0.192-0.026-0.302-0.033c-0.107-0.009-0.228-0.014-0.343-0.012
		c-0.24,0-0.486,0.024-0.708,0.076c-0.229,0.049-0.437,0.13-0.615,0.233c-0.091,0.057-0.177,0.105-0.254,0.172
		c-0.079,0.064-0.151,0.127-0.218,0.209c-0.067,0.071-0.128,0.146-0.191,0.237c-0.058,0.079-0.116,0.166-0.178,0.256
		c-0.067,0.094-0.125,0.18-0.177,0.255c-0.061,0.089-0.119,0.162-0.172,0.227c-0.052,0.062-0.103,0.132-0.139,0.167
		c-0.037,0.042-0.056,0.069-0.056,0.069s0.014,0.028,0.039,0.072c0.027,0.041,0.069,0.116,0.128,0.184
		c0.061,0.068,0.144,0.17,0.241,0.235c0.098,0.072,0.221,0.146,0.359,0.206c0.13,0.05,0.28,0.095,0.444,0.125
		c0.15,0.021,0.318,0.027,0.482,0.018c0.156-0.02,0.326-0.045,0.479-0.096c0.149-0.051,0.306-0.113,0.438-0.194
		c0.277-0.158,0.506-0.37,0.676-0.607c0.172-0.239,0.284-0.505,0.347-0.76c0.029-0.13,0.048-0.25,0.056-0.368
		c0.011-0.113,0.006-0.226,0.002-0.315c0-0.051-0.005-0.1-0.011-0.141c-1.29,1.371-2.213,1.413-2.213,1.413
		c0.455-0.069,1.438-1.007,2.031-1.607C11.511,13.093,11.463,13.086,11.41,13.082z"/>
	<path fill="#010101" d="M9.242,18.752c-0.008-0.049-0.02-0.099-0.035-0.138c-1.059,1.558-1.964,1.741-1.964,1.741
		c0.441-0.133,1.266-1.213,1.756-1.899c-0.045-0.003-0.092-0.003-0.146,0.003c-0.084,0.002-0.196,0.003-0.304,0.015
		c-0.106,0.008-0.226,0.02-0.341,0.041c-0.237,0.037-0.476,0.099-0.688,0.183c-0.219,0.085-0.41,0.2-0.571,0.328
		c-0.082,0.07-0.159,0.133-0.225,0.211c-0.067,0.074-0.127,0.146-0.182,0.238c-0.056,0.08-0.104,0.164-0.152,0.264
		c-0.045,0.088-0.09,0.186-0.134,0.281c-0.053,0.105-0.097,0.195-0.134,0.281c-0.047,0.098-0.092,0.18-0.135,0.25
		c-0.042,0.068-0.082,0.145-0.112,0.189c-0.029,0.045-0.044,0.072-0.044,0.072s0.017,0.029,0.048,0.068
		c0.034,0.035,0.087,0.104,0.155,0.162c0.072,0.057,0.169,0.145,0.275,0.191c0.108,0.057,0.241,0.111,0.387,0.148
		c0.138,0.027,0.291,0.049,0.458,0.053c0.152-0.004,0.317-0.021,0.478-0.059c0.153-0.041,0.315-0.094,0.459-0.17
		c0.139-0.074,0.284-0.158,0.402-0.26c0.248-0.199,0.443-0.445,0.573-0.707c0.132-0.262,0.202-0.543,0.224-0.805
		C9.3,19.303,9.3,19.18,9.29,19.064C9.282,18.951,9.261,18.84,9.242,18.752z"/>
	<path fill="#010101" d="M19.277,25.773c0.131-0.891,0.279-1.791,0.453-2.688c0.316-1.682,0.746-3.334,1.266-4.836
		c0.133-0.376,0.291-0.708,0.439-1.062c0.029,0.06,0.039,0.122,0.08,0.178c0.105,0.152,0.252,0.287,0.428,0.386
		c0.084,0.051,0.184,0.091,0.277,0.125c0.096,0.033,0.203,0.048,0.303,0.059c0.104,0.007,0.211,0.002,0.305-0.01
		c0.105-0.019,0.199-0.048,0.281-0.08c0.09-0.038,0.166-0.086,0.23-0.13c0.061-0.042,0.113-0.106,0.152-0.148
		c0.037-0.043,0.063-0.091,0.08-0.117c0.016-0.028,0.025-0.045,0.025-0.045s-0.014-0.016-0.035-0.042
		c-0.023-0.025-0.055-0.07-0.09-0.107c-0.033-0.042-0.068-0.086-0.109-0.144c-0.031-0.047-0.068-0.103-0.113-0.162
		c-0.035-0.057-0.072-0.113-0.109-0.162c-0.041-0.058-0.078-0.105-0.121-0.151c-0.045-0.051-0.088-0.09-0.139-0.132
		c-0.049-0.042-0.102-0.073-0.16-0.107c-0.113-0.064-0.244-0.118-0.391-0.148c-0.141-0.033-0.297-0.048-0.449-0.048
		c-0.014,0-0.025,0.001-0.039,0.001c0.008-0.02,0.016-0.042,0.025-0.061c0.33-0.641,0.668-1.236,1.031-1.75
		c0.369-0.508,0.744-0.947,1.109-1.313c0.379-0.349,0.73-0.636,1.051-0.827c0.307-0.224,0.582-0.331,0.76-0.434
		c0.184-0.094,0.279-0.144,0.279-0.144s-0.105,0.027-0.301,0.08c-0.195,0.066-0.512,0.099-0.852,0.282
		c-0.365,0.143-0.775,0.377-1.236,0.68c-0.443,0.318-0.924,0.718-1.375,1.223c-0.455,0.502-0.891,1.094-1.293,1.753
		c-0.389,0.667-0.77,1.386-1.08,2.163c-0.314,0.776-0.621,1.584-0.846,2.428c-0.203,0.699-0.359,1.42-0.516,2.139
		c0.004-0.551-0.039-9.323-0.192-12.144c-0.015-0.302-0.031-0.59-0.049-0.868c-0.213,0.118-0.427,0.231-0.641,0.341
		c-0.011,0.174-0.022,0.342-0.032,0.524c-0.166,2.847-0.289,11.578-0.285,12.146c-0.157-0.719-0.314-1.439-0.517-2.139
		c-0.224-0.844-0.531-1.651-0.846-2.428c-0.31-0.776-0.692-1.495-1.079-2.163c-0.403-0.659-0.839-1.25-1.293-1.753
		c-0.451-0.505-0.932-0.905-1.376-1.223c-0.459-0.303-0.87-0.537-1.235-0.68c-0.342-0.184-0.657-0.216-0.851-0.282
		c-0.197-0.053-0.302-0.08-0.302-0.08s0.097,0.05,0.279,0.144c0.178,0.103,0.455,0.21,0.76,0.434
		c0.321,0.191,0.673,0.478,1.052,0.827c0.364,0.366,0.74,0.805,1.109,1.313c0.364,0.515,0.702,1.109,1.032,1.75
		c0.009,0.019,0.017,0.041,0.025,0.061c-0.014,0-0.026-0.001-0.041-0.001c-0.153,0-0.307,0.015-0.449,0.048
		c-0.145,0.03-0.277,0.083-0.39,0.148c-0.06,0.034-0.112,0.065-0.161,0.107c-0.05,0.042-0.095,0.081-0.138,0.132
		c-0.044,0.045-0.082,0.093-0.122,0.151c-0.037,0.049-0.074,0.105-0.11,0.162c-0.044,0.059-0.081,0.115-0.114,0.162
		c-0.04,0.058-0.074,0.102-0.108,0.144c-0.035,0.037-0.066,0.082-0.089,0.107c-0.023,0.026-0.035,0.042-0.035,0.042
		s0.009,0.018,0.025,0.045c0.018,0.026,0.042,0.074,0.08,0.117c0.039,0.042,0.092,0.107,0.152,0.148
		c0.063,0.044,0.142,0.092,0.229,0.13c0.083,0.032,0.177,0.061,0.282,0.08c0.095,0.013,0.201,0.018,0.306,0.01
		c0.099-0.011,0.207-0.026,0.303-0.059c0.094-0.033,0.193-0.073,0.276-0.125c0.176-0.1,0.322-0.234,0.429-0.386
		c0.04-0.057,0.051-0.119,0.08-0.178c0.147,0.354,0.305,0.686,0.439,1.062c0.519,1.502,0.948,3.155,1.264,4.836
		c0.176,0.896,0.324,1.797,0.456,2.688c-2.908-7.537-9.641-8.361-9.641-8.361s5.578,1.44,8.729,9.07
		c1.716,4.152,1.228,8.5,1.265,9.262L18,35.74l0.922,0.004c0.037-0.762-0.45-5.109,1.266-9.262c3.152-7.63,8.729-9.07,8.729-9.07
		S22.184,18.237,19.277,25.773z M21.693,16.556c0.346,0.331,0.754,0.676,0.971,0.706c0,0-0.418-0.026-1.037-0.551
		C21.65,16.661,21.67,16.605,21.693,16.556z M13.336,17.262c0.217-0.03,0.625-0.375,0.971-0.706
		c0.023,0.049,0.042,0.104,0.064,0.155C13.755,17.235,13.336,17.262,13.336,17.262z"/>
	<path fill="#010101" d="M26.26,11.764c0.08,0.062,0.17,0.13,0.273,0.193c0.176,0.113,0.396,0.258,0.637,0.371
		c0.246,0.122,0.516,0.226,0.811,0.319c0.584,0.175,1.256,0.267,1.939,0.202c0.686-0.062,1.381-0.277,2.027-0.646
		c0.32-0.172,0.627-0.415,0.91-0.654c0.283-0.246,0.537-0.56,0.758-0.853c0.219-0.321,0.4-0.664,0.539-0.996
		c0.133-0.359,0.221-0.714,0.275-1.041c0.041-0.35,0.037-0.68,0.01-0.966C34.424,7.42,34.32,7.135,34.25,6.933
		c-0.063-0.202-0.166-0.372-0.219-0.474c-0.057-0.107-0.102-0.166-0.102-0.166s-0.068,0.011-0.203,0.033
		c-0.115,0.025-0.314,0.044-0.496,0.081c-0.199,0.033-0.414,0.061-0.666,0.079c-0.213,0.015-0.455,0.035-0.723,0.057
		C31.586,6.553,31.34,6.57,31.117,6.6c-0.26,0.016-0.484,0.052-0.707,0.101c-0.246,0.041-0.453,0.11-0.678,0.191
		c-0.229,0.078-0.424,0.192-0.648,0.305c-0.416,0.25-0.828,0.564-1.197,0.964c-0.371,0.395-0.707,0.861-0.99,1.34
		c-0.143,0.236-0.271,0.482-0.383,0.709c-0.115,0.226-0.207,0.465-0.291,0.649c-0.053,0.111-0.094,0.217-0.127,0.315
		c1.91-0.481,4.967-1.355,5.639-2.202C31.734,8.973,30.553,10.786,26.26,11.764z"/>
	<path fill="#010101" d="M35.783,14.245c-0.021-0.153-0.076-0.285-0.102-0.364c-0.031-0.084-0.055-0.13-0.055-0.13s-0.053,0-0.148,0
		c-0.086,0.005-0.23-0.003-0.365,0.002c-0.145,0-0.301-0.003-0.484-0.019c-0.154-0.015-0.33-0.025-0.521-0.042
		c-0.184-0.021-0.361-0.037-0.525-0.042c-0.188-0.019-0.352-0.017-0.516-0.008c-0.182,0.002-0.336,0.027-0.506,0.06
		c-0.174,0.03-0.324,0.09-0.496,0.146c-0.326,0.129-0.656,0.309-0.965,0.551c-0.309,0.241-0.602,0.536-0.857,0.846
		c-0.129,0.153-0.248,0.314-0.354,0.462c-0.107,0.147-0.203,0.309-0.283,0.431c-0.051,0.074-0.09,0.146-0.127,0.211
		c1.42-0.127,3.703-0.406,4.277-0.934c0,0-1.049,1.161-4.225,1.375c0.051,0.053,0.105,0.112,0.174,0.169
		c0.111,0.1,0.254,0.227,0.414,0.337c0.16,0.114,0.342,0.22,0.541,0.319c0.396,0.193,0.865,0.334,1.363,0.364
		c0.496,0.033,1.018-0.043,1.52-0.232c0.248-0.086,0.494-0.225,0.725-0.365c0.23-0.142,0.447-0.338,0.637-0.522
		c0.191-0.204,0.361-0.429,0.498-0.65c0.137-0.241,0.238-0.484,0.313-0.711c0.07-0.244,0.105-0.481,0.117-0.688
		C35.852,14.612,35.811,14.396,35.783,14.245z"/>
	<path fill="#010101" d="M21.955,10.122c0.008,0.157,0.023,0.326,0.063,0.475c0.074,0.31,0.211,0.588,0.395,0.819
		c0.18,0.233,0.404,0.415,0.631,0.547c0.115,0.065,0.227,0.116,0.338,0.158c0.104,0.043,0.215,0.069,0.301,0.09
		c0.047,0.013,0.096,0.022,0.139,0.028c-0.953-1.625-0.732-2.521-0.732-2.521c-0.066,0.455,0.555,1.664,0.965,2.4
		c0.021-0.039,0.043-0.082,0.063-0.13c0.035-0.081,0.078-0.181,0.117-0.282c0.037-0.101,0.076-0.213,0.104-0.327
		c0.068-0.231,0.113-0.472,0.127-0.701c0.018-0.232-0.004-0.455-0.049-0.655c-0.029-0.104-0.051-0.2-0.094-0.292
		c-0.039-0.095-0.078-0.181-0.139-0.268c-0.049-0.084-0.105-0.165-0.176-0.25c-0.057-0.077-0.123-0.16-0.193-0.241
		c-0.072-0.091-0.137-0.17-0.195-0.243c-0.068-0.084-0.123-0.158-0.17-0.229c-0.043-0.068-0.096-0.137-0.121-0.182
		c-0.031-0.047-0.051-0.074-0.051-0.074s-0.029,0.006-0.078,0.017c-0.047,0.017-0.133,0.034-0.213,0.072
		c-0.082,0.039-0.203,0.089-0.293,0.165c-0.096,0.075-0.201,0.173-0.297,0.287c-0.086,0.113-0.17,0.243-0.246,0.391
		c-0.061,0.14-0.115,0.297-0.15,0.458C21.973,9.79,21.947,9.959,21.955,10.122z"/>
	<path fill="#010101" d="M21.221,14.798c0.016-0.027,0.027-0.058,0.041-0.09c0.025-0.055,0.055-0.123,0.08-0.194
		c0.027-0.069,0.055-0.146,0.074-0.226c0.047-0.16,0.078-0.326,0.086-0.484c0.014-0.16-0.002-0.314-0.035-0.451
		c-0.018-0.073-0.031-0.138-0.063-0.203c-0.025-0.063-0.055-0.123-0.096-0.183c-0.035-0.059-0.072-0.115-0.119-0.173
		c-0.041-0.054-0.088-0.11-0.135-0.168c-0.051-0.062-0.094-0.118-0.135-0.167c-0.047-0.058-0.086-0.11-0.117-0.159
		c-0.027-0.046-0.066-0.094-0.084-0.124c-0.02-0.033-0.033-0.05-0.033-0.05s-0.021,0.003-0.055,0.01
		c-0.033,0.01-0.09,0.022-0.146,0.049c-0.057,0.028-0.139,0.062-0.203,0.113c-0.066,0.051-0.139,0.119-0.205,0.198
		c-0.061,0.078-0.117,0.168-0.17,0.27c-0.041,0.095-0.078,0.205-0.104,0.315c-0.018,0.108-0.035,0.225-0.029,0.337
		c0.006,0.109,0.016,0.225,0.043,0.328c0.051,0.213,0.145,0.408,0.271,0.566c0.125,0.159,0.279,0.286,0.436,0.377
		c0.08,0.044,0.156,0.081,0.234,0.109c0.072,0.03,0.148,0.048,0.207,0.063c0.031,0.009,0.066,0.016,0.096,0.02
		c-0.656-1.122-0.504-1.74-0.504-1.74C20.51,13.457,20.938,14.291,21.221,14.798z"/>
	<path fill="#010101" d="M24.252,13.439c-0.004,0.089-0.01,0.202,0.002,0.315c0.008,0.118,0.027,0.238,0.055,0.368
		c0.064,0.255,0.176,0.521,0.348,0.76c0.17,0.237,0.398,0.449,0.676,0.607c0.133,0.081,0.289,0.143,0.439,0.194
		c0.152,0.051,0.322,0.077,0.479,0.096c0.164,0.009,0.332,0.002,0.482-0.018c0.162-0.03,0.313-0.075,0.443-0.125
		c0.139-0.06,0.26-0.134,0.359-0.206c0.098-0.065,0.18-0.167,0.24-0.235c0.059-0.068,0.102-0.143,0.129-0.184
		c0.025-0.044,0.039-0.072,0.039-0.072s-0.02-0.027-0.057-0.069c-0.037-0.036-0.086-0.106-0.139-0.167
		c-0.053-0.065-0.111-0.138-0.174-0.227c-0.049-0.075-0.109-0.161-0.176-0.255c-0.061-0.09-0.119-0.177-0.178-0.256
		c-0.063-0.091-0.123-0.167-0.191-0.237c-0.066-0.082-0.139-0.145-0.217-0.209c-0.076-0.067-0.162-0.115-0.254-0.172
		c-0.18-0.103-0.385-0.185-0.615-0.233c-0.223-0.051-0.467-0.076-0.707-0.076c-0.115-0.002-0.236,0.003-0.344,0.012
		c-0.109,0.007-0.217,0.022-0.303,0.033c-0.053,0.004-0.102,0.011-0.145,0.021c0.592,0.6,1.576,1.539,2.031,1.607
		c0,0-0.924-0.042-2.213-1.413C24.258,13.339,24.252,13.388,24.252,13.439z"/>
	<path fill="#010101" d="M30.012,20.551c-0.041-0.07-0.086-0.152-0.135-0.25c-0.035-0.086-0.08-0.176-0.135-0.281
		c-0.043-0.096-0.088-0.193-0.133-0.281c-0.047-0.1-0.096-0.184-0.152-0.264c-0.055-0.092-0.115-0.164-0.182-0.238
		c-0.066-0.078-0.145-0.141-0.227-0.211c-0.16-0.128-0.352-0.243-0.568-0.328c-0.213-0.084-0.451-0.146-0.689-0.183
		c-0.113-0.021-0.232-0.033-0.34-0.041c-0.107-0.012-0.219-0.013-0.303-0.015c-0.055-0.006-0.104-0.006-0.146-0.003
		c0.488,0.687,1.314,1.767,1.756,1.899c0,0-0.906-0.184-1.965-1.741c-0.016,0.039-0.027,0.089-0.035,0.138
		c-0.018,0.088-0.039,0.199-0.047,0.313c-0.01,0.115-0.01,0.238-0.002,0.371c0.021,0.262,0.092,0.543,0.223,0.805
		s0.326,0.508,0.574,0.707c0.117,0.102,0.262,0.186,0.4,0.26c0.145,0.076,0.309,0.129,0.461,0.17
		c0.16,0.037,0.326,0.055,0.479,0.059c0.166-0.004,0.32-0.025,0.457-0.053c0.146-0.037,0.279-0.092,0.387-0.148
		c0.107-0.047,0.203-0.135,0.275-0.191c0.068-0.059,0.121-0.127,0.156-0.162c0.029-0.039,0.047-0.068,0.047-0.068
		s-0.016-0.027-0.043-0.072C30.096,20.695,30.055,20.619,30.012,20.551z"/>
</g>
</svg>
