<?xml version="1.0" encoding="utf-8"?>
<!-- Generator: Adobe Illustrator 16.0.4, SVG Export Plug-In . SVG Version: 6.00 Build 0)  -->
<!DOCTYPE svg PUBLIC "-//W3C//DTD SVG 1.1//EN" "http://www.w3.org/Graphics/SVG/1.1/DTD/svg11.dtd">
<svg version="1.1" id="Capa_1" xmlns="http://www.w3.org/2000/svg" xmlns:xlink="http://www.w3.org/1999/xlink" x="0px" y="0px"
	 width="7.945px" height="19.938px" viewBox="0 0 7.945 19.938" enable-background="new 0 0 7.945 19.938" xml:space="preserve">
<path d="M7.032,3.907c0.136-0.093,0.377,0.146,0.661,0.146c0.286,0,0.239-0.26,0.229-0.49C7.911,3.337,7.59,3.302,7.363,3.359
	C7.217,3.395,7.099,3.37,7.031,3.348l0.007-0.291L7.095,2.82c0.111,0.281,0.516,0.351,0.764,0.16
	c0.245-0.194-0.093-0.709-0.248-1.157C7.455,1.372,7.564,0.831,7.564,0.831s-0.211,0.508-0.188,0.91
	C7.397,2.148,7.655,2.54,7.521,2.64C7.387,2.742,7.183,2.527,7.149,2.316C7.115,2.102,7.217,1.911,7.217,1.911l-0.27-1.91
	l-0.259,1.91c0,0,0.065,0.012,0.021,0.371C6.666,2.64,6.262,2.73,6.272,2.575c0.013-0.158,0.315-0.562,0.237-1.046
	C6.43,1.046,6.216,0.878,6.216,0.878s0.18,0.336,0.168,0.662c-0.011,0.326-0.2,0.619-0.347,0.934
	C5.889,2.786,6.094,3.003,6.362,3.046C6.218,3.134,6.2,3.393,6.222,3.573C6.247,3.757,6.826,3.85,6.826,3.85S6.6,4.087,6.578,4.316
	c-0.022,0.228,0.112,0.525,0.057,0.74C6.598,5.198,6.194,5.327,5.917,5.4C5.756,5.296,5.615,5.212,5.586,5.182
	c-0.067-0.065,0-0.426-0.271-0.832C5.047,3.943,5.001,3.855,4.979,3.542C4.956,3.227,5.091,2.956,4.956,2.665
	C4.823,2.372,4.709,2.189,4.709,2.189S4.912,2.057,4.776,1.9c-0.135-0.159,0-0.36-0.225-0.473C4.326,1.314,4.35,1.023,4.35,1.023
	S4.215,0.71,4.103,0.73C3.992,0.755,3.787,0.777,3.787,0.956c0,0.18-0.067,0.313-0.136,0.403C3.585,1.452,3.429,1.652,3.475,1.79
	C3.476,1.8,3.482,1.816,3.484,1.829C3.419,1.896,3.331,2.023,3.413,2.111C3.434,2.135,3.462,2.15,3.49,2.163
	c-0.003,0.006-0.005,0.016-0.009,0.02c-0.066,0.066-0.264,0.395-0.31,0.664C3.124,3.118,3.157,3.404,3.135,3.63
	c-0.021,0.227-0.021,0.99-0.27,1.147C2.62,4.934,2.215,5.003,2.171,4.552C2.125,4.104,2.552,3.991,2.462,3.63
	C2.37,3.271,2.146,3.227,1.968,3.182C1.787,3.137,1.585,3.227,1.676,3.292C1.764,3.361,2.036,3.607,1.946,3.9
	C1.853,4.193,1.878,4.575,1.988,4.8c0.113,0.225,0.36,0.338,0.36,0.338S1.787,5.159,1.561,5.564
	C1.338,5.969,1.427,6.482,1.338,6.643C1.249,6.8,0.932,7.52,0.932,7.52S0.95,7.059,0.868,7.093C0.832,7.105,0.702,7.216,0.66,7.122
	C0.557,6.898,0.521,6.32,0.347,6.305C0.102,6.284-0.078,6.643,0.035,7.341c0.111,0.695,0.38,0.99,0.515,1.123
	C0.683,8.6,1.091,8.98,1.224,8.936c0.135-0.045,0.474-0.428,0.562-0.764c0.091-0.338,0.45-1.238,0.45-1.238s0.36,0.904,0.295,1.312
	c-0.069,0.403-0.533,1.002-0.505,2.241c0.019,0.766-0.017,1.91,0.074,2.678c0.09,0.764,0,1.57,0.045,1.818
	c0.017,0.098,0.034,0.176,0.049,0.24c-0.036-0.004-0.062-0.006-0.071-0.01c-0.136-0.051-0.201-0.488-0.251-0.59
	c-0.053-0.102-0.118,0.049-0.139,0.287c-0.014,0.236-0.231,0.641-0.471,1.281c-0.217,0.588-0.588,2.873-0.646,3.248
	c-0.069,0.014-0.111,0.021-0.111,0.021c-0.184,0.061-0.289,0.285-0.312,0.477h7.663c-0.021-0.117-0.034-0.217-0.034-0.273
	c0-0.203-0.069-0.186-0.187-0.27c-0.119-0.086-0.337-0.051-0.776-0.17c-0.015-0.002-0.03-0.006-0.046-0.01L6.958,8.88
	c0.044-0.049,0.082-0.088,0.11-0.123C7.204,8.6,7.294,8.553,7.273,8.374C7.248,8.193,7.385,7.925,7.204,7.835
	C7.13,7.798,7.047,7.794,6.971,7.798l0.055-3.885C7.027,3.911,7.031,3.909,7.032,3.907z M1.827,5.677
	C1.661,5.911,1.514,6.409,1.514,6.409s0.023-0.576,0.19-0.834c0.166-0.255,0.7-0.302,0.7-0.302S1.993,5.441,1.827,5.677z
	 M3.361,4.13C3.316,4.251,3.238,4.352,3.238,4.352s0.104-0.68,0.066-0.99C3.273,3.051,3.295,2.34,3.651,2.373
	c0,0-0.29,0.276-0.258,0.789C3.429,3.673,3.404,4.007,3.361,4.13z M6.623,19.168c-0.012,0-0.021-0.004-0.034-0.006
	c0-0.449-0.004-1.18-0.013-1.455c-0.02-0.404-0.289-0.994-0.489-1.178c-0.201-0.188-0.271-1.99-0.337-2.193
	c-0.027-0.078-0.076-0.035-0.131,0.059c0.049-0.744,0.141-1.875,0.124-2.15c-0.022-0.406-0.022-0.654-0.022-0.654l0.338-0.07
	l-0.54-1.479l0.135-0.16c0,0-0.404-0.854-0.404-1.326c0-0.471,0.358-1.281,0.358-1.281s0.182,1.123,0.227,1.415
	C5.876,8.98,6.123,9.318,6.35,9.298C6.468,9.284,6.62,9.18,6.763,9.061L6.623,19.168z M6.778,7.788
	C6.753,7.779,6.726,7.766,6.709,7.747C6.62,7.634,6.553,6.193,6.44,5.902c-0.033-0.09-0.12-0.186-0.225-0.274
	c0.209-0.082,0.464-0.189,0.598-0.26L6.778,7.788z"/>
</svg>
