<?xml version="1.0" encoding="utf-8"?>
<!-- Generator: Adobe Illustrator 15.0.0, SVG Export Plug-In . SVG Version: 6.00 Build 0)  -->
<!DOCTYPE svg PUBLIC "-//W3C//DTD SVG 1.1//EN" "http://www.w3.org/Graphics/SVG/1.1/DTD/svg11.dtd">
<svg version="1.1" id="Layer_1" xmlns="http://www.w3.org/2000/svg" xmlns:xlink="http://www.w3.org/1999/xlink" x="0px" y="0px"
	 width="64px" height="64px" viewBox="0 0 64 64" enable-background="new 0 0 64 64" xml:space="preserve">
<g>
	<g>
		<path d="M55.729,53.481c-2.385,0.623-4.849,0.94-7.316,0.94c-10.789,0-20.639-5.91-25.709-15.417
			c-6.365-11.945-3.738-26.538,6.393-35.491l1.808-1.597l-2.335,0.61c-2.304,0.6-4.529,1.467-6.611,2.577
			C7.234,12.954,1.638,31.32,9.489,46.048c5.271,9.89,15.515,16.035,26.729,16.035c4.925,0,9.839-1.233,14.212-3.564
			c2.082-1.11,4.04-2.47,5.826-4.048l1.808-1.6L55.729,53.481z"/>
	</g>
	<g>
		<path d="M37.24,36.371L42.7,33.5l5.457,2.871l-1.042-6.078l4.416-4.305l-6.103-0.888L42.7,19.573l-2.729,5.528l-6.104,0.888
			l4.416,4.305L37.24,36.371z"/>
	</g>
</g>
</svg>
